<?xml version="1.0" encoding="UTF-8" standalone="no"?>
<!-- Created with Inkscape (http://www.inkscape.org/) -->

<svg
   xmlns:dc="http://purl.org/dc/elements/1.1/"
   xmlns:cc="http://creativecommons.org/ns#"
   xmlns:rdf="http://www.w3.org/1999/02/22-rdf-syntax-ns#"
   xmlns:svg="http://www.w3.org/2000/svg"
   xmlns="http://www.w3.org/2000/svg"
   xmlns:sodipodi="http://sodipodi.sourceforge.net/DTD/sodipodi-0.dtd"
   xmlns:inkscape="http://www.inkscape.org/namespaces/inkscape"
   width="66.168114mm"
   height="9.8408031mm"
   viewBox="0 0 66.168114 9.840803"
   version="1.1"
   id="svg8"
   inkscape:version="0.92.2 (5c3e80d, 2017-08-06)"
   sodipodi:docname="XMICRO Logo Black.svg">
  <defs
     id="defs2" />
  <sodipodi:namedview
     id="base"
     pagecolor="#ffffff"
     bordercolor="#666666"
     borderopacity="1.0"
     inkscape:pageopacity="0.0"
     inkscape:pageshadow="2"
     inkscape:zoom="8"
     inkscape:cx="106.93572"
     inkscape:cy="14.792242"
     inkscape:document-units="mm"
     inkscape:current-layer="g1314"
     showgrid="false"
     showguides="true"
     inkscape:window-width="1366"
     inkscape:window-height="715"
     inkscape:window-x="-8"
     inkscape:window-y="-8"
     inkscape:window-maximized="1"
     inkscape:object-paths="true"
     inkscape:object-nodes="true"
     inkscape:snap-smooth-nodes="true"
     inkscape:snap-intersection-paths="true"
     fit-margin-left="0.5"
     fit-margin-top="0.5"
     fit-margin-right="0.5"
     fit-margin-bottom="0.5"
     inkscape:pagecheckerboard="true"
     inkscape:snap-nodes="true"
     inkscape:snap-others="true"
     inkscape:snap-bbox="true" />
  <metadata
     id="metadata5">
    <rdf:RDF>
      <cc:Work
         rdf:about="">
        <dc:format>image/svg+xml</dc:format>
        <dc:type
           rdf:resource="http://purl.org/dc/dcmitype/StillImage" />
        <dc:title></dc:title>
      </cc:Work>
    </rdf:RDF>
  </metadata>
  <g
     transform="translate(-12.359679,-138.98347)"
     inkscape:label="Black"
     inkscape:groupmode="layer"
     id="g1314"
     style="display:inline">
    <g
       aria-label="XMiCRO"
       transform="matrix(0.89375596,0,-0.2998013,1.1188737,39.692835,0)"
       style="font-style:normal;font-weight:normal;font-size:11.45182228px;line-height:1.25;font-family:sans-serif;letter-spacing:0px;word-spacing:0px;fill:#000000;fill-opacity:1;stroke:none;stroke-width:0.28629553"
       id="g1312">
      <path
         style="font-style:normal;font-variant:normal;font-weight:normal;font-stretch:normal;font-size:13.74218655px;font-family:gunship;-inkscape-font-specification:gunship;fill:#000000;fill-opacity:1;stroke-width:1.08206189"
         d="m 10.84375,1.8886719 0.181641,0.328125 h 11.697265 l -0.18164,-0.328125 z m 27.574219,0 -0.357422,0.328125 h 11.697265 l 0.357422,-0.328125 z m 15.246093,0 -0.08789,0.328125 H 97.960938 C 97.432664,2.0043233 96.858105,1.8886719 96.230469,1.8886719 Z m 54.353518,0 -0.0879,0.328125 h 10.16797 l 0.0879,-0.328125 z m 21.8789,0 c -0.64872,0 -1.30551,0.1155386 -1.96875,0.328125 h 34.14454 l 0.0879,-0.328125 z m 88.08399,0 c -0.66977,0 -1.33964,0.1154699 -2.00977,0.328125 h 28.83594 c -0.52503,-0.210522 -1.09264,-0.328125 -1.71289,-0.328125 z m -51.11914,0.00195 -0.0879,0.3261719 h 33.49023 C 199.64844,2.0016496 198.99102,1.890625 198.28711,1.890625 Z M 12.117188,4.1796875 12.480469,4.8339844 H 24.175781 L 23.8125,4.1796875 Z m 23.800781,0 -0.712891,0.6542969 h 11.695313 l 0.71289,-0.6542969 z m 17.132812,0 L 52.875,4.8339844 h 47.7832 c -0.0699,-0.1527973 -0.14167,-0.3039467 -0.22265,-0.4453125 -0.0422,-0.073863 -0.092,-0.1382899 -0.13672,-0.2089844 z m 54.353519,0 -0.17578,0.6542969 h 10.16796 l 0.17579,-0.6542969 z m 17.19531,0 c -0.12366,0.1073446 -0.24925,0.2100025 -0.37109,0.3242187 -0.11181,0.1048087 -0.21738,0.2195979 -0.32618,0.3300782 h 37.46875 l 0.17579,-0.6542969 z m 41.64844,0 -0.17578,0.6542969 h 37.29492 c -0.0939,-0.1735223 -0.19204,-0.3436218 -0.30274,-0.5039063 -0.0366,-0.052983 -0.0791,-0.099044 -0.11718,-0.1503906 z m 46.34765,0 c -0.10485,0.08889 -0.21109,0.172232 -0.31445,0.265625 -0.13123,0.1230148 -0.25573,0.2578447 -0.38281,0.3886719 h 35.625 c -0.0448,-0.090222 -0.0835,-0.185113 -0.13282,-0.2714844 -0.0715,-0.1347239 -0.15435,-0.2576494 -0.23437,-0.3828125 z M 13.388672,6.46875 13.935547,7.4511719 H 25.628906 L 25.082031,6.46875 Z m 20.033203,0 -1.072266,0.9824219 h 11.69336 L 45.115234,6.46875 Z m 19.015625,0 -0.263672,0.9824219 h 49.097652 c -0.006,-0.1303344 -0.007,-0.2627873 -0.0195,-0.390625 -0.0239,-0.204773 -0.0584,-0.3989016 -0.0937,-0.5917969 z m 54.35352,0 -0.26368,0.9824219 h 10.16797 L 116.95898,6.46875 Z m 15.74804,0 c -0.1864,0.2649793 -0.36805,0.537601 -0.54297,0.8242188 -0.0322,0.051696 -0.0584,0.1061285 -0.0898,0.1582031 h 38.76367 L 160.93359,6.46875 Z m 43.09571,0 -0.26368,0.9824219 h 38.74805 c -0.0134,-0.1104378 -0.0181,-0.2240971 -0.0371,-0.3320313 -0.0295,-0.2246098 -0.0728,-0.4390927 -0.11914,-0.6503906 z m 44.91406,0 c -0.1716,0.2465729 -0.33822,0.5024972 -0.5,0.7675781 -0.0431,0.070682 -0.0794,0.1436688 -0.1211,0.2148438 h 38.25391 c -0.003,-0.032872 -0.002,-0.066851 -0.006,-0.099609 C 248.1529,7.043942 248.11056,6.7514478 248.05859,6.46875 Z M 14.662109,8.7597656 15.390625,10.068359 H 27.080078 L 26.353516,8.7597656 Z m 16.259766,0 -1.427734,1.3085934 h 11.691406 l 1.427734,-1.3085934 z m 20.900391,0 -0.34961,1.3085934 h 49.519534 c 0.10963,-0.4479779 0.19117,-0.8840899 0.23828,-1.3085934 z m 54.353514,0 -0.34961,1.3085934 h 10.16797 l 0.34961,-1.3085934 z m 15.04297,0 c -0.19121,0.4245338 -0.35652,0.8616394 -0.5,1.3085934 h 39.25 l 0.34961,-1.3085934 z m 43.80273,0 -0.35156,1.3085934 h 39.29297 c 0.0963,-0.4493966 0.16961,-0.8893247 0.19727,-1.3085934 z m 44.23243,0 c -0.19059,0.4279933 -0.3556,0.8641631 -0.49805,1.3085934 h 39.26758 c 0.0922,-0.4452179 0.15336,-0.8810325 0.17968,-1.3085934 z m -193.318363,2.2890624 0.910156,1.636719 h 21.482422 l 1.787109,-1.636719 H 28.425781 L 27.894531,11.535156 27.625,11.048828 Z m 35.273437,0 -0.4375,1.636719 h 10.119141 l 0.4375,-1.636719 z m 19.728516,0 -0.4375,1.636719 h 10.119141 l 0.4375,-1.636719 z m 19.728516,0 -0.4375,1.636719 h 10.072264 l 0.4375,-1.636719 z m 14.896484,0 -0.4375,1.636719 h 10.16797 l 0.4375,-1.636719 z m 14.87109,0 -0.4375,1.636719 h 10.11914 l 0.4375,-1.636719 z m 43.97461,0 -0.43945,1.636719 h 10.11914 l 0.4375,-1.636719 z m 29.24219,0 -0.4375,1.636719 h 10.07422 l 0.4375,-1.636719 z m 14.81836,0 -0.4375,1.636719 h 10.11914 l 0.4375,-1.636719 z m 29.15234,0 -0.4375,1.636719 h 10.16602 l 0.4375,-1.636719 z m -220.412106,2.291016 1.091797,1.96289 h 17.169922 l 2.142578,-1.96289 z m 33.386719,0 -0.527344,1.96289 h 10.121094 l 0.525391,-1.96289 z m 19.728516,0 -0.525391,1.96289 h 10.119141 l 0.52539,-1.96289 z m 19.728515,0 -0.52539,1.96289 h 10.072265 l 0.525391,-1.96289 z m 14.896486,0 -0.52539,1.96289 h 10.16601 l 0.52735,-1.96289 z m 14.87109,0 -0.52734,1.96289 h 10.12109 l 0.52539,-1.96289 z m 43.97266,0 -0.52539,1.96289 h 10.11914 l 0.52539,-1.96289 z m 29.24414,0 -0.52539,1.96289 h 10.03516 c 0.0806,-0.227684 0.1608,-0.454713 0.22265,-0.685546 l 0.3418,-1.277344 z m 14.81836,0 -0.52539,1.96289 h 10.11914 l 0.52539,-1.96289 z m 29.15234,0 -0.52539,1.96289 h 10.16602 l 0.52539,-1.96289 z M 18.482422,15.630859 20.146484,18.625 1.8886719,35.304688 H 13.587891 l 10.507812,-9.589844 5.367188,9.589844 H 41.162109 L 31.84375,18.625 35.113281,15.630859 Z m 31.498047,0 -5.271485,19.673829 h 10.121094 l 5.271484,-19.673829 z m 19.730469,0 -5.271485,19.673829 h 10.119141 l 5.271484,-19.673829 z m 19.728515,0 -5.271484,19.673829 h 10.072265 l 5.271485,-19.673829 z m 14.896487,0 -5.271487,19.673829 h 10.166017 l 5.27148,-19.673829 z m 14.86914,0 -2.91992,10.898438 c -0.32181,1.201011 -0.44203,2.342959 -0.36133,3.427734 0.0911,1.04604 0.33733,1.975495 0.73828,2.789063 0.44227,0.774859 1.01946,1.39644 1.73047,1.861328 0.74194,0.464916 1.59142,0.697266 2.55078,0.697266 h 32.26367 l 2.22656,-8.310547 h -29.15234 l 3.04492,-11.363282 z m 43.97461,0 -5.27149,19.673829 h 10.11914 l 3.19141,-11.91211 h 11.29102 l 4.18945,11.91211 h 10.10937 l -4.18945,-11.91211 c 0.86652,0 1.82598,-0.232603 2.87891,-0.697266 1.06336,-0.503651 2.07113,-1.143123 3.02148,-1.917968 0.99168,-0.813582 1.85902,-1.744976 2.60352,-2.791016 0.55463,-0.76564 0.98412,-1.551641 1.30273,-2.355469 z m 44.0625,0 -2.91992,10.898438 c -0.33219,1.239747 -0.45766,2.401553 -0.37696,3.486328 0.0911,1.046039 0.34063,1.955637 0.75196,2.730469 0.44226,0.774859 1.01946,1.39644 1.73046,1.861328 0.74195,0.464916 1.60735,0.697266 2.59766,0.697266 h 25.11523 c 0.95937,0 1.93469,-0.23235 2.92579,-0.697266 0.99108,-0.464888 1.91397,-1.086469 2.77148,-1.861328 0.85751,-0.774832 1.61202,-1.68443 2.26367,-2.730469 0.69298,-1.084775 1.20688,-2.246581 1.53906,-3.486328 l 2.91993,-10.898438 h -10.16602 l -3.04492,11.363282 h -19.0332 l 3.04492,-11.363282 z"
         transform="matrix(0.29603532,0,0.07932242,0.23647292,11.085075,124.2173)"
         id="path1310"
         inkscape:connector-curvature="0" />
    </g>
  </g>
</svg>
