<?xml version="1.0" encoding="UTF-8" standalone="no"?>
<!-- Created with Inkscape (http://www.inkscape.org/) -->

<svg
   xmlns:dc="http://purl.org/dc/elements/1.1/"
   xmlns:cc="http://creativecommons.org/ns#"
   xmlns:rdf="http://www.w3.org/1999/02/22-rdf-syntax-ns#"
   xmlns:svg="http://www.w3.org/2000/svg"
   xmlns="http://www.w3.org/2000/svg"
   xmlns:sodipodi="http://sodipodi.sourceforge.net/DTD/sodipodi-0.dtd"
   xmlns:inkscape="http://www.inkscape.org/namespaces/inkscape"
   width="66.168114mm"
   height="9.8408031mm"
   viewBox="0 0 66.168114 9.840803"
   version="1.1"
   id="svg8"
   inkscape:version="0.92.2 (5c3e80d, 2017-08-06)"
   sodipodi:docname="XMICRO Logo Rainbow.svg">
  <defs
     id="defs2" />
  <sodipodi:namedview
     id="base"
     pagecolor="#ffffff"
     bordercolor="#666666"
     borderopacity="1.0"
     inkscape:pageopacity="0.0"
     inkscape:pageshadow="2"
     inkscape:zoom="8"
     inkscape:cx="193.68572"
     inkscape:cy="24.917242"
     inkscape:document-units="mm"
     inkscape:current-layer="g1375"
     showgrid="false"
     showguides="true"
     inkscape:window-width="1366"
     inkscape:window-height="715"
     inkscape:window-x="-8"
     inkscape:window-y="-8"
     inkscape:window-maximized="1"
     inkscape:object-paths="true"
     inkscape:object-nodes="true"
     inkscape:snap-smooth-nodes="true"
     inkscape:snap-intersection-paths="true"
     fit-margin-left="0.5"
     fit-margin-top="0.5"
     fit-margin-right="0.5"
     fit-margin-bottom="0.5"
     inkscape:pagecheckerboard="true"
     inkscape:snap-nodes="true"
     inkscape:snap-others="true"
     inkscape:snap-bbox="true" />
  <metadata
     id="metadata5">
    <rdf:RDF>
      <cc:Work
         rdf:about="">
        <dc:format>image/svg+xml</dc:format>
        <dc:type
           rdf:resource="http://purl.org/dc/dcmitype/StillImage" />
        <dc:title />
      </cc:Work>
    </rdf:RDF>
  </metadata>
  <g
     style="display:inline"
     id="g1375"
     inkscape:groupmode="layer"
     inkscape:label="Rainbow"
     transform="translate(-12.359679,-138.98347)">
    <g
       id="g822">
      <path
         inkscape:connector-curvature="0"
         id="path1758"
         d="m 70.033678,139.48318 c -0.17721,0 -0.354447,0.0306 -0.531752,0.0868 h 7.629509 c -0.138914,-0.0557 -0.289094,-0.0868 -0.453202,-0.0868 z"
         style="font-style:normal;font-variant:normal;font-weight:normal;font-stretch:normal;font-size:13.74218655px;line-height:1.25;font-family:gunship;-inkscape-font-specification:gunship;letter-spacing:0px;word-spacing:0px;fill:#b20000;fill-opacity:1;stroke:none;stroke-width:0.28629553" />
      <path
         inkscape:connector-curvature="0"
         d="m 56.508405,139.4837 -0.02326,0.0863 h 8.860957 c -0.162777,-0.0569 -0.336719,-0.0863 -0.522962,-0.0863 z m -9.780283,-5.2e-4 c -0.17164,0 -0.345416,0.0306 -0.520898,0.0868 H 55.2413 l 0.02326,-0.0868 z m -5.788792,0 -0.02326,0.0868 h 2.690276 l 0.02326,-0.0868 z m -14.381035,0 -0.02325,0.0868 H 38.27851 c -0.139772,-0.0562 -0.291791,-0.0868 -0.457853,-0.0868 z m -4.033862,0 -0.09457,0.0868 h 3.094902 l 0.09457,-0.0868 z m -7.295679,0 0.04806,0.0868 h 3.094901 l -0.04806,-0.0868 z"
         style="font-style:normal;font-variant:normal;font-weight:normal;font-stretch:normal;font-size:13.74218655px;line-height:1.25;font-family:gunship;-inkscape-font-specification:gunship;letter-spacing:0px;word-spacing:0px;fill:#b20000;fill-opacity:1;stroke:none;stroke-width:0.28629553"
         id="path1756" />
    </g>
    <path
       id="path1742"
       style="font-style:normal;font-variant:normal;font-weight:normal;font-stretch:normal;font-size:13.74218655px;line-height:1.25;font-family:gunship;-inkscape-font-specification:gunship;letter-spacing:0px;word-spacing:0px;fill:#da4f00;fill-opacity:1;stroke:none;stroke-width:0.28629553"
       d="m 68.608957,140.08935 c -0.02774,0.0235 -0.05585,0.0456 -0.0832,0.0703 -0.03472,0.0325 -0.06766,0.0682 -0.101285,0.10283 h 9.425781 c -0.01185,-0.0239 -0.02209,-0.049 -0.03514,-0.0718 -0.01892,-0.0356 -0.04084,-0.0682 -0.06201,-0.10128 z m -12.262815,0 -0.04651,0.17311 h 9.867614 c -0.02484,-0.0459 -0.05081,-0.0909 -0.0801,-0.13332 -0.0097,-0.014 -0.02093,-0.0262 -0.031,-0.0398 z m -11.019483,0 c -0.03272,0.0284 -0.06595,0.0556 -0.09818,0.0858 -0.02958,0.0277 -0.05752,0.0581 -0.0863,0.0873 h 9.913606 l 0.04651,-0.17311 z m -4.549593,0 -0.04651,0.17311 h 2.690273 l 0.04651,-0.17311 z m -14.381035,0 -0.04651,0.17311 h 12.642638 c -0.0185,-0.0404 -0.03748,-0.0804 -0.05891,-0.11782 -0.01116,-0.0195 -0.02434,-0.0366 -0.03617,-0.0553 z m -4.533056,0 -0.188619,0.17311 h 3.094385 l 0.188618,-0.17311 z m -6.29729,0 0.09612,0.17311 h 3.094385 l -0.09612,-0.17311 z"
       inkscape:connector-curvature="0" />
    <path
       id="path1728"
       style="font-style:normal;font-variant:normal;font-weight:normal;font-stretch:normal;font-size:13.74218655px;line-height:1.25;font-family:gunship;-inkscape-font-specification:gunship;letter-spacing:0px;word-spacing:0px;fill:#f6cc00;fill-opacity:1;stroke:none;stroke-width:0.28629553"
       d="m 68.06739,140.69499 c -0.0454,0.0652 -0.08949,0.13296 -0.132292,0.20309 -0.0114,0.0187 -0.02101,0.038 -0.03204,0.0568 h 10.121347 c -7.94e-4,-0.009 -5.29e-4,-0.0177 -0.0016,-0.0264 -0.006,-0.0814 -0.01722,-0.15878 -0.03097,-0.23358 z m -11.883512,0 -0.06976,0.25994 h 10.252088 c -0.0035,-0.0292 -0.0048,-0.0593 -0.0098,-0.0879 -0.0078,-0.0594 -0.01926,-0.11618 -0.03152,-0.17209 z m -11.402406,0 c -0.04932,0.0701 -0.09738,0.14224 -0.143661,0.21808 -0.0085,0.0137 -0.01545,0.0281 -0.02376,0.0419 h 10.256221 l 0.06975,-0.25994 z m -4.166669,0 -0.06977,0.25994 h 2.690276 l 0.06976,-0.25994 z m -14.381036,0 -0.06976,0.25994 h 12.99042 c -0.0016,-0.0345 -0.0019,-0.0695 -0.0052,-0.10336 -0.0063,-0.0542 -0.01545,-0.10554 -0.02479,-0.15658 z m -5.031217,0 -0.283704,0.25994 h 3.093868 l 0.283704,-0.25994 z m -5.300452,0 0.144694,0.25994 h 3.093868 l -0.144694,-0.25994 z"
       inkscape:connector-curvature="0" />
    <path
       id="path1714"
       style="font-style:normal;font-variant:normal;font-weight:normal;font-stretch:normal;font-size:13.74218655px;line-height:1.25;font-family:gunship;-inkscape-font-specification:gunship;letter-spacing:0px;word-spacing:0px;fill:#009800;fill-opacity:1;stroke:none;stroke-width:0.28629553"
       d="m 67.724775,141.30116 c -0.05043,0.11324 -0.09409,0.22864 -0.131775,0.34623 h 10.389547 c 0.02439,-0.1178 0.04058,-0.23311 0.04754,-0.34623 z m -11.703163,0 -0.09302,0.34623 H 66.32486 c 0.02548,-0.1189 0.04488,-0.2353 0.05219,-0.34623 z m -11.589472,0 c -0.05059,0.11232 -0.09433,0.22797 -0.132292,0.34623 h 10.384896 l 0.0925,-0.34623 z m -3.98012,0 -0.0925,0.34623 h 2.690276 l 0.0925,-0.34623 z m -14.381033,0 -0.0925,0.34623 H 39.08053 c 0.02901,-0.11853 0.05058,-0.23392 0.06305,-0.34623 z m -5.529895,0 -0.377755,0.34623 h 3.093351 l 0.377755,-0.34623 z m -4.302063,0 0.192753,0.34623 h 3.092834 l -0.192236,-0.34623 z"
       inkscape:connector-curvature="0" />
    <path
       id="path1694"
       style="font-style:normal;font-variant:normal;font-weight:normal;font-stretch:normal;font-size:13.74218655px;line-height:1.25;font-family:gunship;-inkscape-font-specification:gunship;letter-spacing:0px;word-spacing:0px;fill:#0046c8;fill-opacity:1;stroke:none;stroke-width:0.28629553"
       d="m 75.230258,141.90681 -0.115755,0.43304 h 2.689759 l 0.115756,-0.43304 z m -7.713223,0 -0.115755,0.43304 h 2.677356 l 0.115755,-0.43304 z m -3.920691,0 -0.115755,0.43304 h 2.665471 l 0.115755,-0.43304 z m -7.736996,0 -0.116271,0.43304 h 2.677356 l 0.115755,-0.43304 z m -11.634949,0 -0.115755,0.43304 H 46.786 l 0.115755,-0.43304 z m -3.934642,0 -0.115755,0.43304 h 2.690275 l 0.115755,-0.43304 z m -3.941362,0 -0.115755,0.43304 h 2.664953 l 0.115756,-0.43304 z m -5.219836,0 -0.115755,0.43304 h 2.677356 l 0.115755,-0.43304 z m -5.219836,0 -0.115756,0.43304 h 2.677356 l 0.115756,-0.43304 z m -9.332764,0 0.240812,0.43304 h 5.683891 l 0.472839,-0.43304 h -3.092834 l -0.14056,0.12867 -0.07131,-0.12867 z"
       inkscape:connector-curvature="0" />
    <path
       id="path1674"
       style="font-style:normal;font-variant:normal;font-weight:normal;font-stretch:normal;font-size:13.74218655px;line-height:1.25;font-family:gunship;-inkscape-font-specification:gunship;letter-spacing:0px;word-spacing:0px;fill:#6e0096;fill-opacity:1;stroke:none;stroke-width:0.28629553"
       d="m 75.067995,142.51297 -0.13901,0.51935 h 2.68976 l 0.139009,-0.51935 z m -7.713224,0 -0.139009,0.51935 h 2.677356 l 0.139009,-0.51935 z m -3.920691,0 -0.139009,0.51935 h 2.655136 c 0.02132,-0.0602 0.04254,-0.12031 0.05891,-0.18139 l 0.09043,-0.33796 z m -7.737512,0 -0.139009,0.51935 h 2.677356 l 0.139009,-0.51935 z m -11.634432,0 -0.139526,0.51935 h 2.677872 l 0.139009,-0.51935 z m -3.934643,0 -0.139009,0.51935 h 2.689756 l 0.139528,-0.51935 z m -3.941362,0 -0.139009,0.51935 h 2.664953 l 0.13901,-0.51935 z m -5.219836,0 -0.13901,0.51935 h 2.677356 l 0.13901,-0.51935 z m -5.219836,0 -0.139527,0.51935 h 2.677873 l 0.13901,-0.51935 z m -8.83357,0 0.288872,0.51935 h 4.542875 l 0.56689,-0.51935 z"
       inkscape:connector-curvature="0" />
    <path
       id="path1371"
       style="font-style:normal;font-variant:normal;font-weight:normal;font-stretch:normal;font-size:13.74218655px;line-height:1.25;font-family:gunship;-inkscape-font-specification:gunship;letter-spacing:0px;word-spacing:0px;fill:#82003c;fill-opacity:1;stroke:none;stroke-width:0.28629553"
       d="m 67.192508,143.11913 -0.772562,2.88355 c -0.08789,0.32802 -0.12109,0.63541 -0.09974,0.92242 0.0241,0.27677 0.09013,0.51743 0.198956,0.72244 0.117015,0.20502 0.269732,0.36948 0.457851,0.49248 0.196308,0.12301 0.425278,0.18448 0.687298,0.18448 h 6.645071 c 0.253833,0 0.511887,-0.0615 0.774115,-0.18448 0.262223,-0.123 0.506405,-0.28746 0.733288,-0.49248 0.226882,-0.20501 0.426513,-0.44567 0.598929,-0.72244 0.183351,-0.28701 0.31932,-0.5944 0.40721,-0.92242 l 0.772564,-2.88355 h -2.689759 l -0.805635,3.00654 h -5.035868 l 0.805636,-3.00654 z m -11.658203,0 -1.394749,5.20537 h 2.677356 l 0.844394,-3.15174 h 2.987416 l 1.108458,3.15174 h 2.674771 l -1.108459,-3.15174 c 0.229267,0 0.483124,-0.0616 0.761712,-0.18449 0.281347,-0.13326 0.547987,-0.30245 0.799433,-0.50746 0.262382,-0.21526 0.491866,-0.46169 0.688848,-0.73846 0.146746,-0.20257 0.260382,-0.41054 0.344681,-0.62322 z m -11.634949,0 -0.772562,2.88355 c -0.08515,0.31777 -0.116954,0.61991 -0.0956,0.90692 0.0241,0.27677 0.08925,0.52268 0.195337,0.73794 0.117017,0.20502 0.269732,0.36948 0.457853,0.49248 0.196305,0.12301 0.421063,0.18448 0.674894,0.18448 h 8.536429 l 0.589111,-2.19883 h -7.713223 l 0.805635,-3.00654 z m -3.934127,0 -1.394747,5.20537 h 2.689758 l 1.394746,-5.20537 z m -3.941362,0 -1.394746,5.20537 h 2.664953 l 1.394747,-5.20537 z m -5.219836,0 -1.394747,5.20537 h 2.677356 l 1.394747,-5.20537 z m -5.220353,0 -1.394747,5.20537 h 2.677873 l 1.394746,-5.20537 z m -8.333858,0 0.440283,0.7922 -4.830713,4.41317 h 3.095418 l 2.780192,-2.53731 1.420069,2.53731 h 3.095418 l -2.465483,-4.41317 0.865064,-0.7922 z"
       inkscape:connector-curvature="0" />
  </g>
</svg>
