<?xml version="1.0" encoding="UTF-8" standalone="no"?>
<!-- Created with Inkscape (http://www.inkscape.org/) -->

<svg
   xmlns:dc="http://purl.org/dc/elements/1.1/"
   xmlns:cc="http://creativecommons.org/ns#"
   xmlns:rdf="http://www.w3.org/1999/02/22-rdf-syntax-ns#"
   xmlns:svg="http://www.w3.org/2000/svg"
   xmlns="http://www.w3.org/2000/svg"
   xmlns:sodipodi="http://sodipodi.sourceforge.net/DTD/sodipodi-0.dtd"
   xmlns:inkscape="http://www.inkscape.org/namespaces/inkscape"
   width="66.168114mm"
   height="9.8408031mm"
   viewBox="0 0 66.168114 9.840803"
   version="1.1"
   id="svg8"
   inkscape:version="0.92.2 (5c3e80d, 2017-08-06)"
   sodipodi:docname="XMICRO Logo Full Black.svg">
  <defs
     id="defs2" />
  <sodipodi:namedview
     id="base"
     pagecolor="#ffffff"
     bordercolor="#666666"
     borderopacity="1.0"
     inkscape:pageopacity="0.0"
     inkscape:pageshadow="2"
     inkscape:zoom="8"
     inkscape:cx="106.93572"
     inkscape:cy="14.792242"
     inkscape:document-units="mm"
     inkscape:current-layer="g4583"
     showgrid="false"
     showguides="true"
     inkscape:window-width="1366"
     inkscape:window-height="715"
     inkscape:window-x="-8"
     inkscape:window-y="-8"
     inkscape:window-maximized="1"
     inkscape:object-paths="true"
     inkscape:object-nodes="true"
     inkscape:snap-smooth-nodes="true"
     inkscape:snap-intersection-paths="true"
     fit-margin-left="0.5"
     fit-margin-top="0.5"
     fit-margin-right="0.5"
     fit-margin-bottom="0.5"
     inkscape:pagecheckerboard="true"
     inkscape:snap-nodes="true"
     inkscape:snap-others="true"
     inkscape:snap-bbox="true" />
  <metadata
     id="metadata5">
    <rdf:RDF>
      <cc:Work
         rdf:about="">
        <dc:format>image/svg+xml</dc:format>
        <dc:type
           rdf:resource="http://purl.org/dc/dcmitype/StillImage" />
        <dc:title></dc:title>
      </cc:Work>
    </rdf:RDF>
  </metadata>
  <g
     style="display:inline"
     id="g4583"
     inkscape:groupmode="layer"
     inkscape:label="Full Black"
     transform="translate(-12.359679,-138.98347)">
    <g
       id="g4569"
       style="font-style:normal;font-weight:normal;font-size:11.45182228px;line-height:1.25;font-family:sans-serif;letter-spacing:0px;word-spacing:0px;fill:#000000;fill-opacity:1;stroke:none;stroke-width:0.28629553"
       transform="matrix(0.89375596,0,-0.2998013,1.1188737,39.692835,0)"
       aria-label="XMiCRO">
      <path
         inkscape:connector-curvature="0"
         id="path4557"
         style="font-style:normal;font-variant:normal;font-weight:normal;font-stretch:normal;font-size:13.74218655px;font-family:gunship;-inkscape-font-specification:gunship;fill:#000000;fill-opacity:1;stroke-width:0.28629553"
         d="m 17.907899,124.66399 h -3.463031 l 4.081429,3.95775 -4.081429,3.94401 h 3.463031 l 2.349914,-2.26746 2.349914,2.26746 h 3.463031 l -4.08143,-3.94401 4.08143,-3.95775 h -3.463031 l -2.349914,2.28121 z" />
      <path
         inkscape:connector-curvature="0"
         id="path4559"
         style="font-style:normal;font-variant:normal;font-weight:normal;font-stretch:normal;font-size:13.74218655px;font-family:gunship;-inkscape-font-specification:gunship;fill:#000000;fill-opacity:1;stroke-width:0.28629553"
         d="m 30.116973,126.62913 h 2.844632 v 5.93662 h 2.995797 v -5.93662 h 2.844632 v 5.93662 h 2.982055 v -5.90914 q 0,-0.41227 -0.164906,-0.76956 -0.178649,-0.37104 -0.453492,-0.63214 -0.288586,-0.27485 -0.659625,-0.42601 -0.371039,-0.16491 -0.783305,-0.16491 H 27.121176 v 7.90176 h 2.995797 z" />
      <path
         inkscape:connector-curvature="0"
         id="path4561"
         style="font-style:normal;font-variant:normal;font-weight:normal;font-stretch:normal;font-size:13.74218655px;font-family:gunship;-inkscape-font-specification:gunship;fill:#000000;fill-opacity:1;stroke-width:0.28629553"
         d="m 46.22174,132.56575 h -3.009539 v -7.90176 h 3.009539 z" />
      <path
         inkscape:connector-curvature="0"
         id="path4563"
         style="font-style:normal;font-variant:normal;font-weight:normal;font-stretch:normal;font-size:13.74218655px;font-family:gunship;-inkscape-font-specification:gunship;fill:#000000;fill-opacity:1;stroke-width:0.28629553"
         d="m 50.609792,130.60062 h 8.630093 v 1.96513 h -9.550819 q -0.426008,0 -0.810789,-0.16491 -0.371039,-0.1649 -0.659625,-0.43975 -0.274844,-0.28858 -0.43975,-0.65962 -0.164906,-0.38478 -0.164906,-0.81079 v -3.75162 q 0,-0.426 0.164906,-0.79704 0.164906,-0.38479 0.43975,-0.65963 0.288586,-0.28858 0.659625,-0.45349 0.384781,-0.16491 0.810789,-0.16491 h 9.550819 v 1.96514 h -8.630093 z" />
      <path
         sodipodi:nodetypes="cccccccccccsscccccccccc"
         inkscape:connector-curvature="0"
         id="path4565"
         transform="scale(0.29603532,0.23647292)"
         d="m 204.8125,527.18164 v 33.41406 h 10.11914 v -11.91211 l 11.29094,-5e-5 7.38086,11.91211 h 10.10945 l -7.38086,-11.91211 c 0.86652,0 1.76299,-0.23252 2.69141,-0.69726 0.92841,-0.50365 1.76508,-1.14313 2.50781,-1.91797 0.77368,-0.81358 1.39126,-1.74498 1.85547,-2.79102 0.49515,-1.08477 0.74414,-2.20685 0.74414,-3.36914 v -4.00976 c 0,-1.2785 -0.23306,-2.44224 -0.69727,-3.48828 -0.43326,-1.08478 -1.02094,-2.01422 -1.76367,-2.78907 -0.74273,-0.77484 -1.59337,-1.37464 -2.55273,-1.80078 -0.92842,-0.42618 -1.8886,-0.63867 -2.87891,-0.63867 z m 10.11914,8.30859 h 19.125 v 5.34766 h -19.125 z"
         style="font-style:normal;font-variant:normal;font-weight:normal;font-stretch:normal;font-size:13.74218655px;font-family:gunship;-inkscape-font-specification:gunship;fill:#000000;fill-opacity:1;stroke-width:1.08206189" />
      <path
         inkscape:connector-curvature="0"
         id="path4567"
         style="font-style:normal;font-variant:normal;font-weight:normal;font-stretch:normal;font-size:13.74218655px;font-family:gunship;-inkscape-font-specification:gunship;fill:#000000;fill-opacity:1;stroke-width:0.28629553"
         d="m 75.764652,124.66399 q -0.43975,0 -0.824531,0.16491 -0.371039,0.16491 -0.659625,0.43975 -0.274844,0.27484 -0.43975,0.65962 -0.164907,0.38479 -0.164907,0.81079 v 3.75162 q 0,0.43975 0.164907,0.82453 0.164906,0.37104 0.43975,0.64588 0.288586,0.27485 0.659625,0.43975 0.384781,0.16491 0.824531,0.16491 h 7.434523 q 0.426008,0 0.810789,-0.16491 0.384781,-0.1649 0.673367,-0.43975 0.288586,-0.27484 0.453492,-0.64588 0.178649,-0.38478 0.178649,-0.82453 v -3.75162 q 0,-0.41226 -0.178649,-0.7833 -0.164906,-0.38478 -0.453492,-0.65963 -0.288586,-0.28858 -0.673367,-0.45349 -0.384781,-0.17865 -0.810789,-0.17865 z m 6.541281,5.93663 h -5.634297 v -3.97149 h 5.634297 z" />
    </g>
  </g>
</svg>
